<?xml version="1.0" encoding="utf-8"?>
<!-- Generator: Adobe Illustrator 19.2.1, SVG Export Plug-In . SVG Version: 6.00 Build 0)  -->
<svg version="1.1" id="Layer_1" xmlns="http://www.w3.org/2000/svg" xmlns:xlink="http://www.w3.org/1999/xlink" x="0px" y="0px"
	 viewBox="0 0 249.7 217.7" style="enable-background:new 0 0 249.7 217.7;" xml:space="preserve">
<style type="text/css">
	.st0{fill:#F9F9F9;}
	.st1{fill:#FCFCFC;}
</style>
<path class="st0" d="M10.8,145.7c0,0,38.8,0.3,54.5-9.8c15.7-10.1,35.7-18.3,70.5-7.9s29.8-7.6,41.6-1.1c11.8,6.5,11.8,8.7-1.7,14.3
	c-13.5,5.6-27.5,16.3-44.4,12.9s5.3,13.6,44.9,0.6c0,0,18.5-26.8,27.8-25.9c0,0,3.7-8.7,14-3.1c10.4,5.6,1.7,6.7,0,10.4
	s-18.1,22.5-21.4,30.1c-3.3,7.6-47.1,26.7-55.3,25.8c-8.1-0.8-67.1-11.2-75.8-6.7s-44.1,9.8-43.8,11.8S10.8,145.7,10.8,145.7z"/>
<g>
	<path class="st1" d="M84.1,56c-3.4-2.5-7.5-2-12.3,1.4l12.5,17c0.5-0.2,1.2-0.5,2.2-0.9c4.6-2,8-3.2,10.1-3.5
		c2.1-0.4,4.4-0.2,7,0.6c3.1,0.9,5.7,2.8,7.8,5.6c2,2.7,3.1,5.7,3.3,9.1c0.2,3.4-0.5,6.5-2.1,9.4c-1.4,2.7-3.7,5.7-6.8,8.9l4.7,6.5
		c1,1.3,0.7,2.5-0.7,3.5c-1.4,1-2.6,0.9-3.6-0.4l-4.7-6.5c-3.9,2.5-7.6,4.2-11,5c-3.4,0.8-6.6,0.7-9.6-0.2c-3-0.9-5.4-2.6-7.2-5
		c-1.5-2.1-2.2-4.1-2.2-6.1c0.1-2,1-3.6,2.6-4.9c1.1-0.8,2.3-1.1,3.6-1c1.3,0.2,2.4,0.8,3.2,1.9c1.6,2.2,1.1,4.3-1.4,6.4
		c2,2.2,4.6,3.2,7.9,3c3.2-0.2,6.7-1.6,10.2-4.1L83.7,82.6l-1.4,0.5c-4.9,1.9-8.4,3.1-10.3,3.5c-2.4,0.5-4.7,0.4-6.8-0.3
		c-2.4-0.8-4.5-2.5-6.4-5.1c-1.9-2.6-3-5.6-3.2-9c-0.2-3.4,0.5-6.4,2.1-9.1c1.3-2.3,3.4-4.9,6.1-7.6l-4.5-6.1
		c-1.1-1.5-1-2.8,0.5-3.8c1.4-1,2.7-0.8,3.8,0.7l4.5,6.1c4.9-2.8,9.5-4.2,13.7-4.2c4.2,0.1,7.3,1.6,9.5,4.5c1,1.3,1.4,2.7,1.2,4.2
		c-0.2,1.5-0.8,2.7-2.1,3.6c-1,0.7-2.1,1-3.3,0.9c-1.2-0.1-2.1-0.7-2.8-1.6C83.5,58.8,83.5,57.5,84.1,56z M79.3,76.6L67.5,60.5
		c-2.8,2.2-4.5,4.7-5.2,7.5c-0.7,2.8-0.2,5.4,1.5,7.8c1.5,2,3.2,3.1,5.3,3.3c2,0.2,4.9-0.4,8.6-1.9C78,77.1,78.5,76.9,79.3,76.6z
		 M88.7,80.4l13.4,18.2c3.1-2.3,5-5.1,5.7-8.4c0.8-3.3,0.1-6.3-1.8-9c-1.8-2.5-4-3.8-6.4-4.1c-2.4-0.2-5.6,0.6-9.4,2.5
		C89.9,79.8,89.4,80,88.7,80.4z"/>
</g>
<g>
	<path class="st1" d="M165.1,32.3c0-4.2-2.7-7.3-8.2-9.3l-6.8,20c0.4,0.3,1.1,0.7,2,1.3c4.3,2.7,7.2,4.7,8.6,6.2s2.6,3.5,3.5,6.1
		c1,3.1,1,6.3-0.2,9.6c-1.1,3.2-2.9,5.8-5.6,7.9c-2.7,2.1-5.6,3.3-8.9,3.7c-3,0.4-6.8,0.2-11.2-0.4l-2.6,7.6c-0.5,1.5-1.6,2-3.3,1.5
		c-1.7-0.6-2.2-1.6-1.7-3.2l2.6-7.6c-4.3-1.8-7.8-3.9-10.4-6.2c-2.6-2.3-4.4-5-5.3-7.9c-0.9-3-0.9-5.9,0-8.8
		c0.8-2.4,2.1-4.2,3.8-5.3c1.7-1.1,3.5-1.3,5.5-0.6c1.3,0.4,2.3,1.3,2.9,2.4c0.6,1.2,0.7,2.4,0.2,3.7c-0.9,2.6-2.9,3.4-6,2.5
		c-0.7,2.9,0,5.6,2,8.2c2,2.5,5.1,4.6,9.3,6l7.7-22.5l-1.2-0.8c-4.4-3-7.3-5.1-8.8-6.5c-1.8-1.7-3-3.6-3.6-5.7
		c-0.7-2.4-0.5-5.2,0.5-8.2c1.1-3.1,2.9-5.7,5.5-7.8c2.6-2.1,5.5-3.3,8.7-3.5c2.7-0.2,5.9,0,9.7,0.6l2.4-7.1
		c0.6-1.8,1.7-2.4,3.4-1.8c1.7,0.6,2.2,1.7,1.6,3.5l-2.4,7.1c5.2,2.4,8.9,5.4,11.2,8.8c2.3,3.5,2.9,6.9,1.8,10.4
		c-0.5,1.5-1.4,2.7-2.8,3.4c-1.3,0.7-2.7,0.8-4.1,0.3c-1.2-0.4-2.1-1.1-2.6-2.2c-0.6-1.1-0.7-2.1-0.3-3.2
		C162.5,33.5,163.5,32.7,165.1,32.3z M145.4,40.3l6.4-18.9c-3.4-1-6.4-1-9.1,0.1c-2.7,1.1-4.5,3-5.5,5.7c-0.8,2.4-0.7,4.5,0.3,6.2
		c1,1.8,3.1,3.7,6.4,5.9C144.3,39.5,144.7,39.8,145.4,40.3z M147.7,50.1l-7.3,21.4c3.6,1.2,7,1.1,10.2-0.1c3.1-1.3,5.2-3.5,6.3-6.6
		c1-2.9,0.9-5.4-0.3-7.6c-1.2-2.1-3.7-4.2-7.4-6.3C148.9,50.8,148.4,50.5,147.7,50.1z"/>
</g>
<g>
	<path class="st1" d="M218.9,84.5c2-3.7,1.1-7.7-2.8-12l-15.5,14.4c0.2,0.5,0.6,1.2,1.2,2.1c2.5,4.4,4.1,7.6,4.7,9.6s0.7,4.4,0.2,7
		c-0.6,3.2-2.1,6-4.7,8.4c-2.4,2.3-5.3,3.7-8.7,4.3c-3.3,0.6-6.5,0.3-9.6-1c-2.9-1.1-6.1-3-9.7-5.7l-5.9,5.5c-1.2,1.1-2.4,1-3.6-0.3
		c-1.2-1.3-1.2-2.5,0-3.6l5.9-5.5c-2.9-3.6-5-7.1-6.2-10.3c-1.2-3.3-1.5-6.4-0.9-9.5c0.6-3.1,2-5.6,4.2-7.7c1.9-1.8,3.8-2.7,5.8-2.9
		c2-0.2,3.7,0.5,5.1,2.1c0.9,1,1.4,2.2,1.4,3.5c0,1.3-0.5,2.4-1.6,3.4c-2,1.8-4.2,1.6-6.5-0.6c-1.9,2.2-2.6,5-2.1,8.2
		s2.3,6.4,5.3,9.7l17.4-16.2l-0.7-1.3c-2.5-4.7-4-8-4.7-9.8c-0.8-2.3-1-4.6-0.5-6.8c0.5-2.5,2-4.8,4.3-7c2.4-2.2,5.2-3.6,8.6-4.2
		c3.3-0.6,6.4-0.3,9.3,1c2.5,1.1,5.2,2.8,8.3,5.2l5.5-5.1c1.4-1.3,2.7-1.3,3.9,0c1.2,1.3,1.1,2.6-0.3,3.9l-5.5,5.1
		c3.4,4.6,5.3,8.9,5.7,13.1c0.4,4.2-0.7,7.5-3.4,10c-1.2,1.1-2.5,1.7-4,1.7c-1.5,0-2.8-0.5-3.8-1.6c-0.9-0.9-1.3-2-1.3-3.2
		c0-1.2,0.4-2.2,1.2-3C216.1,84.3,217.3,84.1,218.9,84.5z M195.1,91.9l-16.6,15.4c2.7,2.8,5.7,4.3,9,4.7c3.3,0.4,6.2-0.6,8.7-2.9
		c2.3-2.1,3.4-4.4,3.3-6.8c0-2.4-1.2-5.5-3.5-9.1C195.9,93.1,195.6,92.6,195.1,91.9z M197.8,82.2l14.6-13.6
		c-2.5-2.5-5.2-3.9-8.1-4.3c-2.9-0.3-5.4,0.5-7.5,2.4c-1.8,1.7-2.7,3.6-2.7,5.6c0,2,1,4.8,2.9,8.3C197.2,80.9,197.5,81.4,197.8,82.2
		z"/>
</g>
<g>
	<path class="st1" d="M133.7,99c-1.1-0.8-2.3-0.6-3.8,0.4l3.8,5.2c0.1-0.1,0.4-0.2,0.7-0.3c1.4-0.6,2.5-1,3.1-1.1
		c0.6-0.1,1.4,0,2.2,0.2c1,0.3,1.8,0.9,2.4,1.7c0.6,0.8,0.9,1.8,1,2.8c0.1,1-0.1,2-0.6,2.9c-0.4,0.8-1.1,1.8-2.1,2.8l1.5,2
		c0.3,0.4,0.2,0.8-0.2,1.1c-0.4,0.3-0.8,0.3-1.1-0.1l-1.5-2c-1.2,0.8-2.3,1.3-3.4,1.5c-1,0.2-2,0.2-2.9-0.1
		c-0.9-0.3-1.7-0.8-2.2-1.6c-0.5-0.6-0.7-1.3-0.7-1.9c0-0.6,0.3-1.1,0.8-1.5c0.3-0.3,0.7-0.4,1.1-0.3c0.4,0.1,0.7,0.3,1,0.6
		c0.5,0.7,0.3,1.3-0.4,2c0.6,0.7,1.4,1,2.4,0.9c1-0.1,2.1-0.5,3.2-1.3l-4.3-5.9l-0.4,0.2c-1.5,0.6-2.6,0.9-3.2,1.1
		c-0.7,0.2-1.4,0.1-2.1-0.1c-0.7-0.3-1.4-0.8-2-1.6c-0.6-0.8-0.9-1.7-1-2.8s0.2-2,0.6-2.8c0.4-0.7,1-1.5,1.9-2.4l-1.4-1.9
		c-0.3-0.5-0.3-0.9,0.1-1.2c0.4-0.3,0.8-0.2,1.2,0.2l1.4,1.9c1.5-0.9,2.9-1.3,4.2-1.3c1.3,0,2.3,0.5,2.9,1.4
		c0.3,0.4,0.4,0.8,0.4,1.3c0,0.5-0.3,0.8-0.6,1.1c-0.3,0.2-0.7,0.3-1,0.3c-0.4,0-0.7-0.2-0.9-0.5C133.5,99.8,133.5,99.5,133.7,99z
		 M132.2,105.3l-3.6-5c-0.9,0.7-1.4,1.4-1.6,2.3c-0.2,0.9-0.1,1.7,0.5,2.4c0.5,0.6,1,1,1.6,1c0.6,0.1,1.5-0.1,2.6-0.6
		C131.8,105.5,132,105.4,132.2,105.3z M135.1,106.5l4.1,5.6c0.9-0.7,1.5-1.6,1.8-2.6c0.2-1,0-1.9-0.6-2.8c-0.6-0.8-1.2-1.2-2-1.3
		c-0.8-0.1-1.7,0.2-2.9,0.8C135.5,106.3,135.3,106.4,135.1,106.5z"/>
</g>
<g>
	<path class="st1" d="M104.6,36.6c-0.7-0.9-1.9-1.1-3.4-0.6l2,5.5c0.1,0,0.4,0,0.7-0.1c1.4-0.2,2.4-0.2,3-0.2
		c0.6,0.1,1.2,0.3,1.8,0.7c0.8,0.5,1.3,1.2,1.6,2.1c0.3,0.9,0.4,1.8,0.2,2.7c-0.2,0.9-0.6,1.7-1.3,2.4c-0.6,0.6-1.4,1.2-2.5,1.9
		l0.8,2.1c0.2,0.4,0,0.7-0.5,0.9c-0.5,0.2-0.8,0-0.9-0.4l-0.8-2.1c-1.2,0.4-2.3,0.5-3.3,0.5c-1,0-1.8-0.3-2.5-0.8
		c-0.7-0.5-1.2-1.1-1.5-1.9c-0.2-0.7-0.3-1.3-0.1-1.8c0.2-0.5,0.5-0.9,1.1-1.1c0.4-0.1,0.7-0.1,1,0c0.3,0.1,0.6,0.4,0.7,0.8
		c0.3,0.7,0,1.2-0.9,1.6c0.4,0.7,1,1.2,1.9,1.4s1.9,0.1,3.1-0.3l-2.3-6.2l-0.4,0c-1.5,0.1-2.5,0.2-3,0.1c-0.7,0-1.3-0.2-1.8-0.6
		c-0.6-0.4-1-1-1.3-1.9c-0.3-0.9-0.4-1.7-0.2-2.6c0.2-0.9,0.6-1.7,1.3-2.3c0.5-0.5,1.3-1,2.2-1.6l-0.7-2c-0.2-0.5,0-0.8,0.4-1
		c0.5-0.2,0.8,0,1,0.5l0.7,2c1.5-0.4,2.9-0.4,4-0.1c1.1,0.3,1.8,1,2.2,1.9c0.2,0.4,0.2,0.8,0,1.2c-0.2,0.4-0.4,0.6-0.8,0.8
		c-0.3,0.1-0.6,0.1-1,0c-0.3-0.1-0.5-0.3-0.6-0.6C104.2,37.3,104.3,37,104.6,36.6z M101.7,41.7l-1.9-5.2c-0.9,0.4-1.6,0.9-2,1.6
		s-0.5,1.4-0.2,2.2c0.2,0.7,0.6,1.1,1.1,1.3c0.5,0.2,1.3,0.3,2.4,0.2C101.3,41.8,101.5,41.8,101.7,41.7z M103.9,43.5l2.2,5.9
		c1-0.4,1.7-1,2.2-1.8c0.5-0.8,0.5-1.7,0.2-2.5c-0.3-0.8-0.8-1.3-1.4-1.6c-0.6-0.3-1.5-0.3-2.7-0.1
		C104.3,43.4,104.2,43.4,103.9,43.5z"/>
</g>
<g>
	<path class="st1" d="M189.7,46.9c0.3-1-0.2-1.9-1.4-2.8l-2.9,4.4c0.1,0.1,0.2,0.2,0.4,0.4c0.9,0.9,1.4,1.6,1.7,2.1
		c0.3,0.5,0.4,1,0.5,1.7c0,0.8-0.2,1.6-0.7,2.3c-0.5,0.7-1.1,1.2-1.9,1.5c-0.8,0.3-1.6,0.4-2.4,0.3c-0.8-0.1-1.6-0.4-2.7-0.8
		l-1.1,1.7c-0.2,0.3-0.5,0.4-0.9,0.1s-0.4-0.5-0.2-0.9l1.1-1.7c-0.9-0.7-1.6-1.4-2.1-2.1c-0.5-0.7-0.7-1.5-0.8-2.2
		c0-0.8,0.2-1.5,0.6-2.1c0.4-0.5,0.8-0.9,1.2-1c0.5-0.2,0.9-0.1,1.4,0.2c0.3,0.2,0.5,0.4,0.5,0.8c0.1,0.3,0,0.6-0.2,0.9
		c-0.4,0.6-0.9,0.6-1.6,0.2c-0.3,0.7-0.4,1.4,0,2.1c0.3,0.7,0.9,1.4,1.8,2l3.3-4.9l-0.2-0.3c-0.9-1-1.4-1.7-1.7-2.1
		c-0.3-0.5-0.5-1.1-0.5-1.6c0-0.6,0.2-1.3,0.6-1.9c0.5-0.7,1.1-1.2,1.8-1.5c0.8-0.3,1.5-0.4,2.3-0.3c0.7,0.1,1.4,0.4,2.3,0.8l1-1.6
		c0.3-0.4,0.6-0.5,0.9-0.2s0.4,0.6,0.2,0.9l-1,1.6c1.1,0.9,1.8,1.9,2.1,2.8s0.3,1.8-0.2,2.6c-0.2,0.3-0.5,0.5-0.9,0.6
		c-0.4,0.1-0.7,0-1-0.2c-0.3-0.2-0.4-0.4-0.5-0.7c-0.1-0.3,0-0.6,0.1-0.8C189,47.1,189.3,46.9,189.7,46.9z M184.4,50.1l-3.1,4.7
		c0.8,0.5,1.6,0.7,2.4,0.6s1.5-0.5,1.9-1.2c0.4-0.6,0.6-1.2,0.4-1.8c-0.2-0.6-0.6-1.3-1.4-2C184.6,50.3,184.5,50.2,184.4,50.1z
		 M184.5,47.6l2.8-4.1c-0.7-0.5-1.5-0.7-2.2-0.6c-0.7,0.1-1.3,0.4-1.7,1c-0.3,0.5-0.5,1-0.3,1.5c0.1,0.5,0.5,1.1,1.2,1.8
		C184.2,47.3,184.3,47.4,184.5,47.6z"/>
</g>
</svg>
