<?xml version="1.0" encoding="utf-8"?>
<!-- Generator: Adobe Illustrator 19.2.0, SVG Export Plug-In . SVG Version: 6.00 Build 0)  -->
<svg version="1.1" xmlns="http://www.w3.org/2000/svg" xmlns:xlink="http://www.w3.org/1999/xlink" x="0px" y="0px"
	 viewBox="0 0 1305.1 393" style="enable-background:new 0 0 1305.1 393;" xml:space="preserve">
<style type="text/css">
	.st0{display:none;}
	.st1{display:inline;}
	.st2{fill:#F8991D;}
	.st3{display:inline;fill:none;stroke:#A7A9AC;stroke-width:2;stroke-miterlimit:10;}
	.st4{fill:#58595B;}
	.st5{font-family:'TabletGothicCompressed-Bold';}
	.st6{font-size:120px;}
	.st7{font-size:160px;}
	.st8{fill:#606161;}
	.st9{fill:none;stroke:#F8991D;stroke-width:7;stroke-linecap:round;stroke-miterlimit:10;}
	.st10{fill:none;stroke:#F8AC50;stroke-width:5;stroke-linecap:round;stroke-miterlimit:10;}
	.st11{display:inline;fill:#F8991D;}
	.st12{fill:none;stroke:#BCBCBC;stroke-width:5;stroke-linecap:round;stroke-miterlimit:10;}
</style>
<g id="Layer_1" class="st0">
	<g class="st1">
		<path class="st2" d="M1461.3,278.2c14.6-19.3,23.3-43.4,23.3-69.5c0-63.5-51.5-115-115-115s-115,51.5-115,115
			c0,26.7,9.1,51.3,24.4,70.8c2.7,3.4,5.6,6.7,8.6,9.8c17.6,23,44.3,54.1,46.5,99.5c-0.9-0.6-1.3-0.9-1.3-0.9l0.1,51.1
			c0,4.2,2.5,7.9,6.2,9.7c33.1,16.2,39.4,15.9,66,0.1c3.7-2.2,6.4-5.7,6.4-9.9l0.2-50.9c-0.4,0.3-0.9,0.6-1.3,0.9
			c3.2-60.9,51.8-110.8,51.8-110.8H1461.3z"/>
	</g>
</g>
<g id="Layer_3" class="st0">
	<line class="st3" x1="1369.6" y1="72.5" x2="1369.6" y2="-16.2"/>
	<line class="st3" x1="1320.1" y1="79.3" x2="1297" y2="17.6"/>
	<line class="st3" x1="1275.9" y1="104.3" x2="1238.8" y2="62.6"/>
	<line class="st3" x1="1245.9" y1="142.9" x2="1171.1" y2="86.4"/>
	<line class="st3" x1="1234.2" y1="182" x2="1159.2" y2="171.5"/>
	<line class="st3" x1="1235.8" y1="226.1" x2="1182.3" y2="229"/>
	<line class="st3" x1="1421.5" y1="79.3" x2="1444.6" y2="17.6"/>
	<line class="st3" x1="1465.7" y1="104.3" x2="1502.9" y2="62.6"/>
	<line class="st3" x1="1495.7" y1="142.9" x2="1570.5" y2="86.4"/>
	<line class="st3" x1="1507.4" y1="182" x2="1582.4" y2="171.5"/>
	<line class="st3" x1="1505.8" y1="226.1" x2="1559.3" y2="229"/>
</g>
<g id="Layer_2">
	<text transform="matrix(1 0 0 1 363.1288 212.4245)" class="st4 st5 st6">THE</text>
	<text transform="matrix(1 0 0 1 363.1289 351.6207)" class="st2 st5 st7">INVENTION</text>
	<text transform="matrix(1 0 0 1 930.4565 351.621)" class="st8 st5 st7">GROUP</text>
</g>
<g id="Bulb">
	<g id="Layer_4">
		<g>
			<path class="st2" d="M155.4,295.3c-3,0-5.4-2.6-5.1-5.5c1.1-12.6,1.3-44.6-19.8-71c-27-33.8-14.6-103.6,50.7-105.9
				s81.1,63.8,57.4,100c-22.2,33.9-24.5,49.9-22,76.8c0.3,3-2.1,5.6-5.1,5.6H155.4z"/>
		</g>
	</g>
	<g id="Layer_5">
		<g>
			<polyline class="st9" points="216.7,304.2 154.2,293.4 154.2,293.4 			"/>
			<line class="st9" x1="151.8" y1="306.2" x2="216.7" y2="319"/>
			<path class="st9" d="M210.3,330.4l-11,19.1h-31.3l-10.5-17.6h54.2c0.7,0,0.8-1,0.1-1.1l-61-11.3"/>
			<path class="st9" d="M268.7,288.9"/>
			<path class="st9" d="M157.2,285.4c0,0-7.9,8.3-1.1,8.3"/>
		</g>
	</g>
	<g id="Layer_6">
		<g>
			<polygon class="st2" points="157.5,332.9 209.5,332.9 199.3,350.5 168.1,350.5 			"/>
		</g>
	</g>
	<g id="Layer_10">
		<path class="st10" d="M200.6,242.8c0,0-43.6,23.6-16.3,38.1c0,0,27.7-20.1-21-38.1"/>
	</g>
</g>
<g id="Layer_9" class="st0">
	<circle class="st11" cx="483.1" cy="176.9" r="65.9"/>
</g>
<g id="Layer_8">
	<line class="st12" x1="181.5" y1="92.8" x2="181.5" y2="34.3"/>
	<line class="st12" x1="121.8" y1="118.8" x2="80.5" y2="77.4"/>
	<line class="st12" x1="98" y1="179.4" x2="39.5" y2="179.4"/>
	<line class="st12" x1="124" y1="239.1" x2="82.6" y2="280.5"/>
	<path class="st12" d="M184.6,321.4"/>
	<path class="st12" d="M184.6,262.9"/>
	<line class="st12" x1="244.3" y1="236.9" x2="285.7" y2="278.3"/>
	<line class="st12" x1="270.7" y1="176" x2="329.2" y2="176"/>
	<line class="st12" x1="246.6" y1="113.5" x2="288" y2="72.1"/>
</g>
</svg>
