<svg id="Layer_1" data-name="Layer 1" xmlns="http://www.w3.org/2000/svg" viewBox="0 0 1043.6 240.16"><defs><style>.cls-1{isolation:isolate;}.cls-2{fill:#58595b;}.cls-3{fill:#f8991d;}.cls-4{fill:#606161;}.cls-5,.cls-6{fill:none;stroke-linecap:round;stroke-miterlimit:10;}.cls-5{stroke:#f8991d;stroke-width:7px;}.cls-6{stroke:#fff;stroke-width:5px;}</style></defs><title>newlogo</title><g id="Layer_2" data-name="Layer 2"><g class="cls-1"><path class="cls-2" d="M214.81,58.32h-12.4v-8.9h34.5v8.9h-12.5v64.5h-9.6V58.32Z" transform="translate(-35.52 -23.24)"/><path class="cls-2" d="M276.42,122.83h-9.6V90.53h-15.1v32.3H242V49.42h9.7v31.9h15.1V49.42h9.6v73.4Z" transform="translate(-35.52 -23.24)"/><path class="cls-2" d="M311.92,89.63h-17.3v24.3h21v8.9H285V49.42h28.8v8.9h-19.2v22.5h17.3v8.8Z" transform="translate(-35.52 -23.24)"/></g><g class="cls-1"><path class="cls-3" d="M233.15,238.42h9.44V256H203.07v-17.6h9.44V156.34h-9.28V138.58h39v17.76h-9.12v82.08Z" transform="translate(-35.52 -23.24)"/><path class="cls-3" d="M288.83,256l-18.56-72.64h-0.48V256H250V138.58h25l16.64,69.6h0.64v-69.6h19.52V256H288.83Z" transform="translate(-35.52 -23.24)"/><path class="cls-3" d="M384.83,138.58L365.63,256H338L317.31,138.58H340l10.88,91.68h1l11-91.68h21.92Z" transform="translate(-35.52 -23.24)"/><path class="cls-3" d="M435.55,205.62H411.07v31h30.56V256H390.27V138.58h48V158.1h-27.2v28.64h24.48v18.88Z" transform="translate(-35.52 -23.24)"/><path class="cls-3" d="M487.23,256l-18.56-72.64h-0.48V256H448.35V138.58h25L490,208.18h0.64v-69.6h19.52V256H487.23Z" transform="translate(-35.52 -23.24)"/><path class="cls-3" d="M532.51,158.1H515.39V138.58h54.72V158.1h-17V256H532.51V158.1Z" transform="translate(-35.52 -23.24)"/><path class="cls-3" d="M603.23,238.42h9.44V256H573.15v-17.6h9.44V156.34h-9.28V138.58h39v17.76h-9.12v82.08Z" transform="translate(-35.52 -23.24)"/><path class="cls-3" d="M618.91,197.14c0-40.64,7.68-60.8,30.56-60.8,25.12,0,27.68,19.68,27.68,58.56,0,42.72-6.4,63-30.4,63S618.91,237.95,618.91,197.14Zm37-.8c0-32.16-1-40.8-7.2-40.8-7.2,0-8.32,9.76-8.32,41.44,0,34.88.64,42.88,7.84,42.88C655.07,239.87,655.87,230.1,655.87,196.34Z" transform="translate(-35.52 -23.24)"/><path class="cls-3" d="M724.51,256l-18.56-72.64h-0.48V256H685.63V138.58h25l16.64,69.6h0.64v-69.6h19.52V256H724.51Z" transform="translate(-35.52 -23.24)"/></g><g class="cls-1"><path class="cls-4" d="M805.2,256.35l-1.12-9.44c-4.16,8-10.56,11-17.28,11-20.64,0-25.28-19.52-25.28-61,0-38.4,7.52-60.64,33.12-60.64,20.64,0,26.24,15.2,25.44,43l-19.84,1.76c-0.16-20.48-.64-26.08-7.52-26.08-8.16,0-9.6,11.52-9.6,42.08,0,36,2.72,43.52,10.56,43.52,5.12,0,8.64-4,9.28-16.64v-8H793.2V198.26H821v58.08H805.2Z" transform="translate(-35.52 -23.24)"/><path class="cls-4" d="M854.64,205.78h-4.16V256H829.84V138.58h17.92c23.52,0,37.92,6.4,37.92,32.32,0,14.08-4.16,24.48-13.28,30.08l18.24,55H868.4Zm-2.08-18.08c8.32,0,12.16-4,12.16-15.2,0-11.52-5.44-14.08-10.4-14.08h-3.84V187.7h2.08Z" transform="translate(-35.52 -23.24)"/><path class="cls-4" d="M891.76,197.14c0-40.64,7.68-60.8,30.56-60.8C947.44,136.34,950,156,950,194.9c0,42.72-6.4,63-30.4,63S891.76,237.95,891.76,197.14Zm37-.8c0-32.16-1-40.8-7.2-40.8-7.2,0-8.32,9.76-8.32,41.44,0,34.88.64,42.88,7.84,42.88C927.92,239.87,928.72,230.1,928.72,196.34Z" transform="translate(-35.52 -23.24)"/><path class="cls-4" d="M994,138.58h20.16v82.24c0,20-3.36,37.12-28.8,37.12-25.28,0-27.2-17.92-27.2-37.92V138.58h20.16v78.24c0,17.12.64,23.36,7.84,23.36,6.56,0,7.84-5.12,7.84-23V138.58Z" transform="translate(-35.52 -23.24)"/><path class="cls-4" d="M1023.28,256V138.58h17.44c24,0,38.4,6.24,38.4,34.08,0,23.36-8.16,38.24-34.72,38.24h-0.48V256h-20.64Zm22.88-64.8c9.28,0,12-5.6,12-17.6,0-12.32-4.48-15.2-10.24-15.2h-4v32.8h2.24Z" transform="translate(-35.52 -23.24)"/></g></g><g id="Bulb"><g id="Layer_4" data-name="Layer 4"><path class="cls-3" d="M73.8,205.7a5.09,5.09,0,0,1-5.1-5.5c1.1-12.6,1.3-44.6-19.8-71C21.9,95.4,34.3,25.6,99.6,23.3s81.1,63.8,57.4,100c-22.2,33.9-24.5,49.9-22,76.8a5.12,5.12,0,0,1-5.1,5.6H73.8Z" transform="translate(-35.52 -23.24)"/></g><g id="Layer_5" data-name="Layer 5"><polyline class="cls-5" points="99.58 191.36 37.08 180.56 37.08 180.56"/><line class="cls-5" x1="34.68" y1="193.36" x2="99.58" y2="206.16"/><path class="cls-5" d="M128.7,240.8l-11,19.1H86.4L75.9,242.3h54.2a0.55,0.55,0,0,0,.1-1.1l-61-11.3" transform="translate(-35.52 -23.24)"/><path class="cls-5" d="M187.1,199.3" transform="translate(-35.52 -23.24)"/><path class="cls-5" d="M75.6,195.8s-7.9,8.3-1.1,8.3" transform="translate(-35.52 -23.24)"/></g><g id="Layer_6" data-name="Layer 6"><polygon class="cls-3" points="40.38 220.06 92.38 220.06 82.18 237.66 50.98 237.66 40.38 220.06"/></g><g id="Layer_10" data-name="Layer 10"><path class="cls-6" d="M119,153.2s-43.6,23.6-16.3,38.1c0,0,27.7-20.1-21-38.1" transform="translate(-35.52 -23.24)"/></g></g></svg>