<?xml version="1.0" encoding="utf-8"?>
<!-- Generator: Adobe Illustrator 19.1.0, SVG Export Plug-In . SVG Version: 6.00 Build 0)  -->
<svg version="1.1" xmlns="http://www.w3.org/2000/svg" xmlns:xlink="http://www.w3.org/1999/xlink" x="0px" y="0px"
	 viewBox="0 0 2260 568" style="enable-background:new 0 0 2260 568;" xml:space="preserve">
<style type="text/css">
	.st0{fill:#F4F4F4;stroke:#E2E2E2;stroke-width:2;stroke-miterlimit:10;}
	.st1{fill:#8E8E8E;}
	.st2{fill:#FFFFFF;}
	.st3{fill:#777777;}
	.st4{fill:#FCFCFC;}
	.st5{fill:none;stroke:#A7A9AC;stroke-width:2;stroke-miterlimit:10;}
	.st6{fill:#58595B;}
	.st7{font-family:'AzoSansUber-Regular';}
	.st8{font-size:120px;}
	.st9{fill:#00AEEF;}
	.st10{font-size:160px;}
</style>
<g id="Layer_1">
	<path class="st0" d="M1580,336c14.6-19.3,23.3-43.4,23.3-69.5c0-63.5-51.5-115-115-115c-63.5,0-115,51.5-115,115
		c0,26.7,9.1,51.3,24.4,70.8c2.7,3.4,5.6,6.7,8.6,9.8c18.8,24.6,47.9,58.3,46.6,108.8v31.3c35.4,24.5,76,0,76,0v-31.3
		c-1.7-65,51.9-120,51.9-120H1580z"/>
	<path class="st1" d="M1451.5,445.8c0,0,39.4,28.8,78.9,0l-0.2,50.9c0,4.3-2.7,7.7-6.4,9.9c-26.6,15.9-32.9,16.1-66-0.1
		c-3.7-1.8-6.2-5.5-6.2-9.7L1451.5,445.8z"/>
	<path class="st2" d="M1468.1,168.3c0,0-60,8.5-72.2,77.3c0,0,26.6-14.1,38.6,9.9C1434.5,255.5,1421.5,193.5,1468.1,168.3z"/>
	<g>
		<path class="st3" d="M1453,450.9c0,0,0.9,0.6,2.5,1.5c1.6,0.9,4,2.2,6.9,3.5c1.5,0.7,3,1.3,4.7,2c1.7,0.7,3.5,1.3,5.4,1.9
			c1.9,0.6,3.9,1.1,5.9,1.6c2,0.5,4.1,0.8,6.2,1.1c2.1,0.3,4.2,0.5,6.2,0.5c2.1,0,4.1,0.1,6.1-0.1c1-0.1,2-0.1,2.9-0.2
			c0.9-0.1,1.9-0.2,2.8-0.3c1.8-0.3,3.5-0.6,5-0.9c0.8-0.2,1.5-0.4,2.2-0.6c0.7-0.2,1.4-0.3,2-0.5c1.2-0.4,2.4-0.7,3.2-1
			c1.8-0.6,2.8-0.9,2.8-0.9s-0.9,0.6-2.6,1.5c-0.8,0.5-1.9,0.9-3.1,1.5c-1.2,0.6-2.6,1.1-4.1,1.7c-0.8,0.3-1.6,0.5-2.4,0.8
			c-0.8,0.3-1.7,0.4-2.7,0.7c-0.9,0.2-1.9,0.4-2.8,0.6c-1,0.2-2,0.3-3,0.4c-1,0.1-2.1,0.2-3.1,0.3c-1.1,0.1-2.1,0.1-3.2,0.1
			c-2.2,0-4.4-0.2-6.6-0.5c-2.2-0.3-4.3-0.7-6.4-1.3c-2.1-0.5-4.1-1.2-6.1-1.9c-1.9-0.7-3.8-1.5-5.4-2.3c-1.7-0.8-3.2-1.7-4.6-2.5
			c-2.8-1.7-5-3.3-6.4-4.5C1453.7,451.7,1453,450.9,1453,450.9z"/>
	</g>
	<g>
		<path class="st3" d="M1528.8,461.4c0,0-0.9,0.7-2.5,1.8c-1.6,1.1-4,2.5-7.1,4c-1.5,0.7-3.2,1.5-5,2.1c-1.8,0.7-3.8,1.3-5.8,1.8
			c-2.1,0.5-4.2,1-6.4,1.3c-2.2,0.3-4.5,0.5-6.7,0.7c-2.3,0.1-4.5,0-6.8-0.2c-1.1-0.1-2.2-0.2-3.3-0.4c-1.1-0.2-2.2-0.3-3.2-0.5
			c-1-0.2-2.1-0.4-3-0.7c-1-0.3-2-0.5-2.9-0.8c-0.9-0.3-1.8-0.6-2.7-0.9c-0.8-0.3-1.7-0.7-2.4-1c-1.5-0.7-2.9-1.4-4.1-2
			c-1.2-0.7-2.2-1.3-3-1.8c-1.6-1.1-2.5-1.7-2.5-1.7s1,0.4,2.8,1.2c0.9,0.4,2,0.8,3.2,1.3c0.6,0.3,1.3,0.5,2,0.7
			c0.7,0.2,1.4,0.5,2.2,0.8c1.6,0.5,3.3,1,5.1,1.4c0.9,0.2,1.9,0.4,2.8,0.6c1,0.2,1.9,0.4,3,0.5c2,0.3,4.1,0.5,6.2,0.6
			c2.1,0.1,4.3,0.1,6.5,0c2.2-0.1,4.3-0.2,6.4-0.5c2.1-0.3,4.2-0.6,6.2-1c2-0.5,3.9-0.9,5.7-1.4c1.8-0.5,3.5-1,5.1-1.6
			c3.1-1.1,5.7-2.1,7.4-2.9C1527.8,461.9,1528.8,461.4,1528.8,461.4z"/>
	</g>
	<g>
		<path class="st3" d="M1453,468.9c0,0,3.7,2.1,9.6,4.4c1.5,0.6,3.1,1.1,4.8,1.7c1.7,0.6,3.5,1.1,5.4,1.6c1.9,0.5,3.9,0.9,5.9,1.3
			c2,0.4,4.1,0.6,6.2,0.8c2.1,0.2,4.2,0.3,6.2,0.3c1,0,2,0,3-0.1c1,0,2-0.1,3-0.2c1-0.1,1.9-0.2,2.9-0.3c0.9-0.1,1.9-0.2,2.7-0.4
			c1.8-0.3,3.4-0.7,5-1c0.8-0.2,1.5-0.4,2.2-0.6c0.7-0.2,1.4-0.3,2-0.5c1.2-0.4,2.3-0.7,3.2-1c1.8-0.6,2.8-0.9,2.8-0.9
			s-0.9,0.6-2.5,1.5c-0.8,0.5-1.9,1-3,1.5c-1.2,0.6-2.6,1.1-4.1,1.7c-0.8,0.3-1.6,0.5-2.4,0.8c-0.8,0.3-1.7,0.5-2.6,0.7
			c-0.9,0.3-1.8,0.4-2.8,0.6c-1,0.2-2,0.4-3,0.5c-1,0.2-2,0.3-3.1,0.3c-1,0.1-2.1,0.1-3.2,0.2c-2.1,0.1-4.3,0-6.5-0.2
			c-2.2-0.2-4.3-0.5-6.4-1c-2.1-0.4-4.1-1-6.1-1.6c-1.9-0.6-3.8-1.3-5.5-2c-1.7-0.7-3.3-1.5-4.7-2.2c-2.9-1.5-5.1-3-6.6-4.1
			C1453.8,469.6,1453,468.9,1453,468.9z"/>
	</g>
	<g>
		<path class="st3" d="M1530.2,479.1c0,0-0.8,0.8-2.3,2c-1.5,1.2-3.8,2.7-6.7,4.3c-1.5,0.8-3.1,1.6-4.8,2.3c-1.8,0.7-3.6,1.4-5.6,2
			c-2,0.6-4.1,1.1-6.2,1.4c-2.2,0.3-4.4,0.6-6.6,0.7c-2.2,0.1-4.4,0.1-6.6-0.1c-2.2-0.1-4.3-0.4-6.4-0.8c-2-0.4-4-0.8-5.8-1.4
			c-0.9-0.2-1.8-0.5-2.6-0.8c-0.8-0.3-1.7-0.6-2.4-0.9c-1.5-0.6-2.9-1.2-4.1-1.8c-1.2-0.6-2.2-1.1-3.1-1.6c-1.7-1-2.6-1.5-2.6-1.5
			s1,0.3,2.8,1c0.9,0.3,2,0.6,3.2,1.1c1.2,0.4,2.7,0.8,4.2,1.2c0.8,0.2,1.6,0.4,2.4,0.6c0.4,0.1,0.8,0.2,1.3,0.3
			c0.4,0.1,0.9,0.2,1.3,0.3c1.8,0.4,3.7,0.7,5.7,0.9c2,0.3,4,0.4,6.1,0.5c2.1,0.1,4.2,0.1,6.3,0c2.1-0.1,4.2-0.3,6.3-0.6
			c2.1-0.3,4.1-0.6,6-1.1c1.9-0.5,3.8-1,5.5-1.5c1.7-0.6,3.4-1.1,4.9-1.7c1.5-0.6,2.9-1.2,4-1.7c1.2-0.6,2.2-1.1,3.1-1.5
			C1529.3,479.6,1530.2,479.1,1530.2,479.1z"/>
	</g>
	<g>
		<path class="st3" d="M1453,485.9c0,0,0.9,0.6,2.6,1.4c1.7,0.9,4,2.1,6.9,3.4c1.5,0.6,3.1,1.3,4.7,1.9c1.7,0.7,3.5,1.3,5.4,1.9
			c1.9,0.6,3.9,1.1,5.9,1.6c2,0.5,4.1,0.9,6.1,1.2c1,0.2,2.1,0.3,3.1,0.4c1,0.1,2.1,0.2,3.1,0.3c2.1,0.1,4.1,0.2,6,0.1
			c2-0.1,3.9-0.2,5.7-0.4c0.9-0.1,1.8-0.2,2.6-0.3c0.8-0.1,1.7-0.3,2.4-0.4c0.8-0.1,1.5-0.3,2.2-0.5c0.7-0.2,1.4-0.3,2-0.5
			c1.2-0.4,2.4-0.6,3.2-0.9c1.8-0.6,2.8-0.9,2.8-0.9s-0.9,0.5-2.6,1.4c-0.8,0.4-1.9,0.9-3.1,1.4c-1.2,0.5-2.6,1-4.2,1.5
			c-0.8,0.2-1.6,0.5-2.4,0.7c-0.9,0.2-1.8,0.4-2.7,0.6c-1.8,0.4-3.8,0.7-5.9,0.8c-2,0.2-4.2,0.2-6.3,0.1c-1.1,0-2.2-0.1-3.3-0.2
			c-1.1-0.1-2.2-0.2-3.3-0.4c-2.2-0.4-4.3-0.8-6.4-1.3c-2.1-0.5-4.1-1.2-6-1.9c-1.9-0.7-3.7-1.5-5.4-2.3c-1.7-0.8-3.2-1.6-4.6-2.5
			c-2.8-1.6-5-3.2-6.5-4.4C1453.7,486.7,1453,485.9,1453,485.9z"/>
	</g>
	<g>
		<path class="st3" d="M1530.2,496.2c0,0-0.2,0.2-0.6,0.6c-0.4,0.4-1,0.9-1.8,1.6c-0.8,0.7-1.8,1.4-3,2.3c-1.2,0.8-2.6,1.7-4.2,2.6
			c-1.6,0.9-3.3,1.7-5.3,2.5c-1.9,0.8-4,1.5-6.2,2.1c-2.2,0.6-4.5,1.1-6.9,1.4c-2.4,0.3-4.8,0.5-7.2,0.5c-0.6,0-1.2,0-1.8,0
			l-1.8-0.1c-1.2,0-2.4-0.2-3.6-0.3c-2.4-0.3-4.7-0.7-6.9-1.2c-2.2-0.5-4.3-1.1-6.2-1.8c-1-0.3-1.9-0.7-2.8-1
			c-0.9-0.4-1.8-0.7-2.6-1.1c-1.6-0.8-3.1-1.4-4.4-2.2c-1.3-0.7-2.4-1.3-3.3-1.9c-1.8-1.1-2.8-1.7-2.8-1.7s1.1,0.4,3,1.2
			c0.9,0.4,2.1,0.8,3.5,1.3c1.3,0.5,2.9,1,4.5,1.6c0.8,0.3,1.7,0.5,2.6,0.8c0.9,0.3,1.8,0.6,2.8,0.8c1.9,0.5,4,1,6.1,1.4
			c1.1,0.2,2.2,0.4,3.3,0.5c1.1,0.1,2.2,0.3,3.4,0.4c1.1,0.1,2.3,0.2,3.4,0.2l1.7,0.1l1.7,0c2.3,0,4.6-0.1,6.9-0.4
			c2.3-0.3,4.5-0.6,6.6-1.1c2.1-0.5,4.1-1,6-1.6c1.9-0.6,3.7-1.3,5.3-2c3.2-1.4,5.8-2.7,7.6-3.8
			C1529.2,496.8,1530.2,496.2,1530.2,496.2z"/>
	</g>
	<circle class="st4" cx="1411.6" cy="271.6" r="19.1"/>
</g>
<g id="Layer_3">
	<line class="st5" x1="1488.3" y1="130.3" x2="1488.3" y2="41.6"/>
	<line class="st5" x1="1438.9" y1="137.1" x2="1415.8" y2="75.4"/>
	<line class="st5" x1="1394.6" y1="162.1" x2="1357.5" y2="120.4"/>
	<line class="st5" x1="1364.7" y1="200.7" x2="1289.8" y2="144.2"/>
	<line class="st5" x1="1353" y1="239.8" x2="1278" y2="229.3"/>
	<line class="st5" x1="1354.6" y1="283.9" x2="1301.1" y2="286.8"/>
	<line class="st5" x1="1540.2" y1="137.1" x2="1563.3" y2="75.4"/>
	<line class="st5" x1="1584.5" y1="162.1" x2="1621.6" y2="120.4"/>
	<line class="st5" x1="1614.4" y1="200.7" x2="1689.3" y2="144.2"/>
	<line class="st5" x1="1626.1" y1="239.8" x2="1701.1" y2="229.3"/>
	<line class="st5" x1="1624.5" y1="283.9" x2="1678" y2="286.8"/>
</g>
<g id="Layer_2">
	<text transform="matrix(1 0 0 1 37.734 418.9651)" class="st6 st7 st8">The</text>
	<text transform="matrix(1 0 0 1 330.0622 433.1616)" class="st9 st7 st10">INVENTION</text>
	<text transform="matrix(1 0 0 1 1607.9957 433.1616)" class="st9 st7 st10">GROUP</text>
</g>
</svg>
